HIERARCHY
ROOT Hips
{
	OFFSET 0.000000 0.000000 0.000000
	CHANNELS 6 Xposition Yposition Zposition Zrotation Yrotation Xrotation 
	JOINT LeftUpLeg_virtual
	{
		OFFSET 0.000000 0.000000 0.000000
		CHANNELS 3 Zrotation Yrotation Xrotation
		JOINT LeftUpLeg
		{
			OFFSET 8.479694 -4.795517 -0.379053
			CHANNELS 3 Zrotation Yrotation Xrotation
			JOINT LeftLeg
			{
				OFFSET 0.485052 -32.551468 0.112863
				CHANNELS 3 Zrotation Yrotation Xrotation
				JOINT LeftFoot
				{
					OFFSET 0.438033 -32.635670 -3.012641
					CHANNELS 3 Zrotation Yrotation Xrotation
					JOINT LeftToeBase
					{
						OFFSET 0.970169 -13.225353 11.864223
						CHANNELS 3 Zrotation Yrotation Xrotation
						End Site
						{
							OFFSET 0.000000 0.000000 0.000000
						}
					}
				}
			}
		}
	}
	JOINT RightUpLeg_virtual
	{
		OFFSET 0.000000 0.000000 0.000000
		CHANNELS 3 Zrotation Yrotation Xrotation
		JOINT RightUpLeg
		{
			OFFSET -8.479694 -4.795517 -0.379053
			CHANNELS 3 Zrotation Yrotation Xrotation
			JOINT RightLeg
			{
				OFFSET -0.484100 -32.551483 0.112903
				CHANNELS 3 Zrotation Yrotation Xrotation
				JOINT RightFoot
				{
					OFFSET -0.438985 -32.635651 -3.012681
					CHANNELS 3 Zrotation Yrotation Xrotation
					JOINT RightToeBase
					{
						OFFSET -0.970169 -13.225354 11.864223
						CHANNELS 3 Zrotation Yrotation Xrotation
						End Site
						{
							OFFSET 0.000000 0.000000 0.000000
						}
					}
				}
			}
		}
	}
	JOINT Spine_virtual
	{
		OFFSET 0.000000 0.000000 0.000000
		CHANNELS 3 Zrotation Yrotation Xrotation
		JOINT Spine
		{
			OFFSET 0.000000 7.722015 1.166203
			CHANNELS 3 Zrotation Yrotation Xrotation
			JOINT Spine1
			{
				OFFSET 0.000000 12.024086 0.248766
				CHANNELS 3 Zrotation Yrotation Xrotation
				JOINT Spine2
				{
					OFFSET -0.000000 11.503036 -0.491240
					CHANNELS 3 Zrotation Yrotation Xrotation
					JOINT Neck_virtual
					{
						OFFSET 0.000000 0.000000 0.000000
						CHANNELS 3 Zrotation Yrotation Xrotation
						JOINT Neck
						{
							OFFSET 0.000000 18.430687 -3.123054
							CHANNELS 3 Zrotation Yrotation Xrotation
							JOINT Head
							{
								OFFSET -0.000000 9.051071 1.034021
								CHANNELS 3 Zrotation Yrotation Xrotation
								End Site
								{
									OFFSET 0.000000 0.000000 0.000000
								}
							}
						}
					}
					JOINT LeftShoulder_virtual
					{
						OFFSET 0.000000 0.000000 0.000000
						CHANNELS 3 Zrotation Yrotation Xrotation
						JOINT LeftShoulder
						{
							OFFSET 6.197824 13.665230 -4.064723
							CHANNELS 3 Zrotation Yrotation Xrotation
							JOINT LeftArm
							{
								OFFSET 7.778132 -0.187073 -1.709282
								CHANNELS 3 Zrotation Yrotation Xrotation
								JOINT LeftForeArm
								{
									OFFSET 21.954697 0.000000 -2.041093
									CHANNELS 3 Zrotation Yrotation Xrotation
									JOINT LeftHand
									{
										OFFSET 22.992908 0.000000 -0.870901
										CHANNELS 3 Zrotation Yrotation Xrotation
										End Site
										{
											OFFSET 0.000000 0.000000 0.000000
										}
									}
								}
							}
						}
					}
					JOINT RightShoulder_virtual
					{
						OFFSET 0.000000 0.000000 0.000000
						CHANNELS 3 Zrotation Yrotation Xrotation
						JOINT RightShoulder
						{
							OFFSET -6.197824 13.665230 -4.064723
							CHANNELS 3 Zrotation Yrotation Xrotation
							JOINT RightArm
							{
								OFFSET -7.778132 -0.187073 -1.709282
								CHANNELS 3 Zrotation Yrotation Xrotation
								JOINT RightForeArm
								{
									OFFSET -21.954697 0.000000 -2.041093
									CHANNELS 3 Zrotation Yrotation Xrotation
									JOINT RightHand
									{
										OFFSET -22.992908 0.000000 -0.870901
										CHANNELS 3 Zrotation Yrotation Xrotation
										End Site
										{
											OFFSET 0.000000 0.000000 0.000000
										}
									}
								}
							}
						}
					}
				}
			}
		}
	}
}
MOTION
Frames: 4
Frame Time: 0.033333
2.881676 80.994987 -83.789909 -1.313596 -71.130519 1.489244 -1.285983 -1.754567 12.495414 -2.697882 -7.574385 -14.613769 5.667269 1.179352 43.177792 -1.902529 -15.880253 -8.716105 0.000000 0.000000 0.000000 0.763006 -1.856946 12.457614 -9.165963 10.773727 -38.577701 0.549496 9.810045 37.832971 15.872697 9.552836 3.007972 0.000000 0.000000 0.000000 3.326723 0.995116 -2.278156 7.406766 2.154179 -6.078378 -1.706215 -3.517268 9.267606 -0.000465 -0.266205 0.069424 -1.644541 -2.663375 9.806923 -3.306883 -3.238898 3.000910 0.000000 0.000000 0.000000 0.373151 -2.415619 6.593385 3.678082 -5.976797 3.953710 -71.007446 -22.539278 60.297525 178.914374 -84.489105 -149.651822 0.000000 0.000000 0.000000 -5.021185 -0.179247 5.249639 32.121560 16.695313 7.993335 70.154690 40.589519 27.858194 -171.410783 57.820796 -174.476090 0.000000 0.000000 0.000000 
1.326354 81.191147 -83.963417 -0.625980 -68.537192 0.653016 -1.352915 -2.316768 12.527337 -1.962179 -5.583004 -16.216758 4.477741 0.436502 47.797753 -3.657583 -16.843093 -5.980620 0.000000 0.000000 0.000000 0.952567 -2.038111 12.551636 -8.529591 9.862038 -36.620599 0.539243 9.351408 38.188165 14.757006 8.533036 1.047624 0.000000 0.000000 0.000000 3.329203 1.143270 -2.046323 7.978269 1.883434 -6.165778 -1.646661 -3.551032 9.285537 -0.045531 -0.041686 0.041634 -1.502697 -2.634227 9.802991 -3.296857 -3.228424 2.944421 0.000000 0.000000 0.000000 0.514826 -2.422893 6.565615 3.726529 -6.350508 3.933612 -70.593946 -23.518621 61.886541 -178.007311 -84.929277 -153.148195 0.000000 0.000000 0.000000 -4.869985 -0.200427 5.211367 33.033336 16.936026 8.193908 69.282509 40.914319 26.474168 -171.551512 57.406900 -174.818214 0.000000 0.000000 0.000000 
-0.092862 81.329193 -84.064468 -0.580778 -65.696803 0.586368 -1.009165 -2.674641 12.420388 -0.673311 -3.156778 -18.577138 3.279555 -0.027727 53.105848 -5.744263 -17.875619 -3.314138 0.000000 0.000000 0.000000 1.210037 -2.238441 12.574287 -7.857901 9.006745 -34.680955 0.524276 8.872443 38.255306 13.609461 7.349052 -1.111848 0.000000 0.000000 0.000000 3.407072 1.230486 -1.986672 8.459401 1.587429 -6.258326 -1.555604 -3.672623 9.259974 -0.016607 -0.103115 0.008978 -1.474808 -2.998090 9.786764 -3.315533 -3.084829 2.832382 0.000000 0.000000 0.000000 0.582888 -2.568462 6.502126 3.877781 -6.595821 3.916543 -70.282489 -24.385729 63.291600 -174.447826 -85.343979 -156.996174 0.000000 0.000000 0.000000 -4.854363 -0.343670 5.224498 33.962422 17.081316 8.300508 68.781624 41.036186 25.497236 -171.656328 57.018870 -175.092979 0.000000 0.000000 0.000000 
-1.420188 81.408615 -84.094780 -0.222370 -63.527371 0.185491 -0.766282 -2.346243 12.452733 0.861542 -0.956566 -21.313344 2.960208 -0.148218 57.976893 -6.607879 -17.626977 -1.861672 0.000000 0.000000 0.000000 1.424232 -2.228144 12.558320 -7.310371 8.267141 -32.854248 0.524294 8.565817 38.239197 12.718535 6.423262 -3.044808 0.000000 0.000000 0.000000 3.414924 1.415407 -1.868419 8.759016 1.385347 -6.211360 -1.554498 -3.719148 9.307499 -0.035854 -0.003397 0.012247 -1.364589 -2.929815 9.763749 -3.274079 -3.052602 2.747902 0.000000 0.000000 0.000000 0.710035 -2.573538 6.474956 3.886311 -6.772707 3.870231 -69.898872 -25.121335 64.395358 -172.271796 -85.595043 -159.292647 0.000000 0.000000 0.000000 -4.757354 -0.368532 5.181639 34.720505 17.197827 8.633619 68.687258 40.932354 25.326907 -171.925273 56.698596 -175.443572 0.000000 0.000000 0.000000 
